<?xml version="1.0" encoding="UTF-8"?>
<svg xmlns="http://www.w3.org/2000/svg" xmlns:xlink="http://www.w3.org/1999/xlink" width="76pt" height="59pt" viewBox="0 0 76 59" version="1.1">
<g id="surface1">
<path style=" stroke:none;fill-rule:evenodd;fill:rgb(34.498596%,17.999268%,56.898499%);fill-opacity:1;" d="M 38.785156 41.507813 C 41.753906 40.492188 44.089844 40.296875 46.835938 41.875 C 54.425781 46.234375 65.496094 42.125 63.980469 32.492188 C 63.144531 27.171875 58.386719 23.132813 51.835938 19.675781 C 6.007813 -2.050781 -3.382813 55.929688 38.785156 41.507813 "/>
<path style=" stroke:none;fill-rule:evenodd;fill:rgb(100%,100%,100%);fill-opacity:1;" d="M 51.40625 26.261719 C 57.960938 25.777344 58.707031 34.050781 54.191406 35.558594 C 55.675781 35.855469 57.1875 35.519531 58.726563 34.484375 L 58.265625 37.519531 C 55.550781 38.246094 53.503906 37.585938 51.867188 36.058594 C 49.542969 36.015625 47.898438 34.914063 47.199219 33.21875 C 45.839844 29.917969 47.785156 26.527344 51.40625 26.261719 Z M 51.832031 28.613281 C 53.019531 28.613281 53.976563 29.824219 53.976563 31.316406 C 53.976563 32.808594 53.019531 34.019531 51.832031 34.019531 C 50.648438 34.019531 49.6875 32.808594 49.6875 31.316406 C 49.6875 29.824219 50.648438 28.613281 51.832031 28.613281 "/>
<path style=" stroke:none;fill-rule:evenodd;fill:rgb(100%,100%,100%);fill-opacity:1;" d="M 18.320313 26.351563 L 18.304688 35.859375 L 24.035156 35.859375 C 27.3125 36.125 28.234375 31.9375 25.691406 30.785156 C 27.605469 29.742188 27.285156 26.566406 24.488281 26.351563 Z M 20.828125 31.832031 L 23.488281 31.832031 C 23.902344 31.832031 24.242188 32.257813 24.242188 32.78125 C 24.242188 33.304688 23.902344 33.734375 23.488281 33.734375 L 20.828125 33.734375 Z M 20.828125 28.578125 L 23.347656 28.578125 C 23.738281 28.578125 24.0625 28.898438 24.0625 29.289063 C 24.0625 29.683594 23.738281 30.003906 23.347656 30.003906 L 20.828125 30.003906 L 20.828125 28.578125 "/>
<path style=" stroke:none;fill-rule:evenodd;fill:rgb(100%,100%,100%);fill-opacity:1;" d="M 36.464844 32.761719 L 36.464844 34.910156 C 34.71875 35.996094 32.59375 36.265625 30.871094 35.808594 C 26.714844 34.714844 26.785156 29.039063 29.492188 27.109375 C 32.214844 25.167969 36.816406 26.644531 36.628906 31.777344 L 30.402344 31.777344 C 30.835938 34.316406 33.976563 34.523438 36.464844 32.761719 Z M 30.503906 29.96875 L 33.703125 29.96875 C 33.46875 28.414063 31.058594 27.804688 30.503906 29.96875 "/>
<path style=" stroke:none;fill-rule:evenodd;fill:rgb(100%,100%,100%);fill-opacity:1;" d="M 37.285156 26.582031 L 40.101563 26.582031 L 40.101563 27.773438 C 41.332031 25.84375 44.585938 25.589844 45.871094 28.078125 C 46.261719 28.839844 46.164063 29.21875 46.164063 30.050781 L 46.164063 35.792969 L 43.460938 35.792969 L 43.460938 29.972656 C 43.066406 28.089844 41.777344 28.105469 40.828125 28.964844 C 39.980469 29.734375 40.101563 30.078125 40.101563 31.113281 L 40.101563 35.867188 L 37.324219 35.867188 L 37.285156 26.582031 "/>
</g>
</svg>
